<svg width="18" height="18" viewBox="0 0 18 18" fill="none" xmlns="http://www.w3.org/2000/svg">
<path fill-rule="evenodd" clip-rule="evenodd" d="M5.59667 1.91675C3.36083 1.91675 1.91667 3.27925 1.91667 5.38758V12.6117C1.91667 14.7201 3.36083 16.0834 5.59667 16.0834H12.4033C14.6392 16.0834 16.0833 14.7201 16.0833 12.6117V5.38758C16.0833 3.27925 14.6392 1.91675 12.4033 1.91675H5.59667ZM12.4033 17.3334H5.59667C2.64833 17.3334 0.666666 15.4359 0.666666 12.6117V5.38758C0.666666 2.56341 2.64833 0.666748 5.59667 0.666748H12.4033C15.3517 0.666748 17.3333 2.56341 17.3333 5.38758V12.6117C17.3333 15.4359 15.3517 17.3334 12.4033 17.3334Z" fill="#5E626F"/>
<path fill-rule="evenodd" clip-rule="evenodd" d="M12.4049 9.625H5.59492C5.24992 9.625 4.96992 9.345 4.96992 9C4.96992 8.655 5.24992 8.375 5.59492 8.375H12.4049C12.7499 8.375 13.0299 8.655 13.0299 9C13.0299 9.345 12.7499 9.625 12.4049 9.625Z" fill="#5E626F"/>
<path fill-rule="evenodd" clip-rule="evenodd" d="M9.26858 12.7484C9.10858 12.7484 8.94775 12.6876 8.82608 12.5642C8.58275 12.3192 8.58358 11.9242 8.82775 11.6809L11.5194 9.00008L8.82775 6.31925C8.58358 6.07591 8.58275 5.68091 8.82608 5.43591C9.06942 5.19091 9.46442 5.19091 9.70942 5.43425L12.8461 8.55758C12.9644 8.67425 13.0302 8.83425 13.0302 9.00008C13.0302 9.16591 12.9644 9.32591 12.8461 9.44258L9.70942 12.5659C9.58775 12.6876 9.42775 12.7484 9.26858 12.7484Z" fill="#5E626F"/>
</svg>
